<svg width="30" height="30" viewBox="0 0 30 30" fill="none" xmlns="http://www.w3.org/2000/svg">
<circle cx="15" cy="15" r="15" fill="#C13584"/>
<path d="M15 7.62161C17.4031 7.62161 17.6878 7.63079 18.6368 7.67409C19.5143 7.71411 19.9908 7.86072 20.308 7.98398C20.7281 8.14724 21.0279 8.34227 21.3428 8.65719C21.6577 8.97214 21.8528 9.27195 22.016 9.69204C22.1393 10.0092 22.2859 10.4857 22.3259 11.3632C22.3692 12.3122 22.3784 12.5969 22.3784 15C22.3784 17.4031 22.3692 17.6877 22.3259 18.6367C22.2859 19.5142 22.1393 19.9908 22.016 20.3079C21.8528 20.728 21.6577 21.0278 21.3428 21.3427C21.0279 21.6577 20.7281 21.8527 20.308 22.016C19.9908 22.1392 19.5143 22.2858 18.6368 22.3258C17.6879 22.3691 17.4033 22.3783 15 22.3783C12.5967 22.3783 12.3121 22.3691 11.3632 22.3258C10.4858 22.2858 10.0092 22.1392 9.69207 22.016C9.27198 21.8527 8.97217 21.6577 8.65725 21.3427C8.34233 21.0278 8.14726 20.728 7.984 20.3079C7.86074 19.9908 7.71413 19.5142 7.67411 18.6367C7.63082 17.6877 7.62163 17.4031 7.62163 15C7.62163 12.5969 7.63082 12.3122 7.67411 11.3632C7.71413 10.4857 7.86074 10.0092 7.984 9.69204C8.14726 9.27195 8.34229 8.97214 8.65725 8.65722C8.97217 8.34227 9.27198 8.14724 9.69207 7.98398C10.0092 7.86072 10.4858 7.71411 11.3632 7.67409C12.3123 7.63079 12.5969 7.62161 15 7.62161ZM15 6C12.5558 6 12.2493 6.01036 11.2893 6.05416C10.3314 6.09785 9.67714 6.25001 9.10467 6.47247C8.51284 6.70247 8.01094 7.01021 7.51056 7.51054C7.01023 8.01091 6.70249 8.51282 6.47252 9.10465C6.25002 9.67711 6.09787 10.3314 6.05418 11.2893C6.01038 12.2492 6.00002 12.5557 6.00002 15C6.00002 17.4442 6.01038 17.7507 6.05418 18.7106C6.09787 19.6686 6.25002 20.3228 6.47252 20.8953C6.70249 21.4871 7.01023 21.989 7.51056 22.4894C8.01094 22.9897 8.51284 23.2975 9.10467 23.5274C9.67714 23.7499 10.3314 23.9021 11.2893 23.9458C12.2493 23.9896 12.5558 23.9999 15 23.9999C17.4443 23.9999 17.7508 23.9896 18.7107 23.9458C19.6686 23.9021 20.3229 23.7499 20.8954 23.5274C21.4872 23.2975 21.9891 22.9897 22.4895 22.4894C22.9898 21.989 23.2975 21.4871 23.5275 20.8953C23.75 20.3228 23.9022 19.6686 23.9459 18.7106C23.9897 17.7507 24 17.4442 24 15C24 12.5557 23.9897 12.2492 23.9459 11.2893C23.9022 10.3314 23.75 9.67711 23.5275 9.10465C23.2975 8.51282 22.9898 8.01091 22.4895 7.51054C21.9891 7.01021 21.4872 6.70247 20.8954 6.47247C20.3229 6.25001 19.6686 6.09785 18.7107 6.05416C17.7508 6.01036 17.4443 6 15 6Z" fill="white"/>
<path d="M15.0042 10.3826C12.4517 10.3826 10.3826 12.4517 10.3826 15.0042C10.3826 17.5566 12.4517 19.6258 15.0042 19.6258C17.5566 19.6258 19.6258 17.5566 19.6258 15.0042C19.6258 12.4517 17.5566 10.3826 15.0042 10.3826ZM15.0042 18.0042C13.3473 18.0042 12.0042 16.661 12.0042 15.0042C12.0042 13.3473 13.3473 12.0042 15.0042 12.0042C16.661 12.0042 18.0042 13.3473 18.0042 15.0042C18.0042 16.661 16.661 18.0042 15.0042 18.0042Z" fill="white"/>
<path d="M20.8881 10.1971C20.8881 10.7935 20.4045 11.2771 19.8081 11.2771C19.2116 11.2771 18.7281 10.7935 18.7281 10.1971C18.7281 9.60061 19.2116 9.11707 19.8081 9.11707C20.4045 9.11707 20.8881 9.60061 20.8881 10.1971Z" fill="white"/>
</svg>
