<svg width="30" height="30" viewBox="0 0 30 30" fill="none" xmlns="http://www.w3.org/2000/svg">
<circle cx="15" cy="15" r="15" fill="#0077B5"/>
<path fill-rule="evenodd" clip-rule="evenodd" d="M11.0811 7.71291C11.0811 8.64673 10.37 9.40245 9.25812 9.40245C8.18952 9.40245 7.47849 8.64673 7.5005 7.71291C7.47849 6.73371 8.1895 6 9.27942 6C10.37 6 11.0597 6.73371 11.0811 7.71291ZM7.58989 21.6143V10.7372H10.9703V21.6136H7.58989V21.6143Z" fill="white"/>
<path fill-rule="evenodd" clip-rule="evenodd" d="M13.6798 14.2085C13.6798 12.8517 13.6351 11.6951 13.5904 10.7386H16.5267L16.6828 12.2287H16.7495C17.1944 11.539 18.3063 10.4945 20.1079 10.4945C22.3318 10.4945 24 11.9626 24 15.1643V21.6157H20.6195V15.5879C20.6195 14.1858 20.1306 13.2299 18.9073 13.2299C17.9728 13.2299 17.4172 13.875 17.1951 14.4973C17.1057 14.7201 17.0617 15.0309 17.0617 15.3431V21.6157H13.6812V14.2085H13.6798Z" fill="white"/>
</svg>
