<svg width="16" height="18" viewBox="0 0 16 18" fill="none" xmlns="http://www.w3.org/2000/svg">
<path d="M2.44166 12.2742C2.25821 11.4735 2.16595 10.6547 2.16666 9.83335C2.16666 5.59335 4.58583 1.97001 7.99999 0.515015C11.4142 1.97001 13.8333 5.59335 13.8333 9.83335C13.8333 10.675 13.7383 11.4925 13.5583 12.2742L15.2417 13.7708C15.3141 13.8353 15.3618 13.923 15.3766 14.0188C15.3913 14.1146 15.3722 14.2126 15.3225 14.2958L13.2742 17.7092C13.2416 17.7634 13.197 17.8095 13.1439 17.844C13.0909 17.8784 13.0306 17.9003 12.9678 17.9081C12.905 17.9158 12.8413 17.9091 12.7814 17.8885C12.7216 17.8679 12.6672 17.8339 12.6225 17.7892L10.7442 15.9108C10.5879 15.7546 10.376 15.6667 10.155 15.6667H5.84499C5.624 15.6667 5.41207 15.7546 5.25583 15.9108L3.37749 17.7892C3.33274 17.8339 3.27838 17.8679 3.21854 17.8885C3.15871 17.9091 3.09497 17.9158 3.03216 17.9081C2.96935 17.9003 2.90912 17.8784 2.85604 17.844C2.80296 17.8095 2.75843 17.7634 2.72583 17.7092L0.677493 14.2967C0.627556 14.2134 0.608304 14.1152 0.623064 14.0192C0.637823 13.9232 0.685668 13.8353 0.758327 13.7708L2.44166 12.2742ZM7.99999 9.83335C8.44202 9.83335 8.86594 9.65775 9.1785 9.34519C9.49107 9.03263 9.66666 8.60871 9.66666 8.16668C9.66666 7.72465 9.49107 7.30073 9.1785 6.98817C8.86594 6.67561 8.44202 6.50001 7.99999 6.50001C7.55797 6.50001 7.13404 6.67561 6.82148 6.98817C6.50892 7.30073 6.33333 7.72465 6.33333 8.16668C6.33333 8.60871 6.50892 9.03263 6.82148 9.34519C7.13404 9.65775 7.55797 9.83335 7.99999 9.83335Z" fill="#344D7D"/>
</svg>
