<svg width="30" height="30" viewBox="0 0 30 30" fill="none" xmlns="http://www.w3.org/2000/svg">
<circle cx="15" cy="15" r="15" fill="#FF0000"/>
<path fill-rule="evenodd" clip-rule="evenodd" d="M23.4754 9.28355C23.7747 9.58288 23.9904 9.95539 24.1009 10.364C24.7376 12.9268 24.5905 16.9743 24.1133 19.636C24.0027 20.0446 23.7871 20.4171 23.4877 20.7164C23.1884 21.0158 22.8159 21.2315 22.4073 21.342C20.9114 21.75 14.8908 21.75 14.8908 21.75C14.8908 21.75 8.87018 21.75 7.3743 21.342C6.96569 21.2315 6.59317 21.0158 6.29384 20.7164C5.99452 20.4171 5.77883 20.0446 5.66826 19.636C5.02787 17.0843 5.20343 13.0343 5.6559 10.3764C5.76647 9.96776 5.98215 9.59524 6.28148 9.29591C6.58081 8.99659 6.95333 8.7809 7.36194 8.67033C8.85782 8.26236 14.8784 8.25 14.8784 8.25C14.8784 8.25 20.899 8.25 22.3949 8.65797C22.8035 8.76854 23.176 8.98423 23.4754 9.28355ZM17.9567 15L12.9622 17.8928V12.1071L17.9567 15Z" fill="white"/>
</svg>
